<svg xmlns="http://www.w3.org/2000/svg" width="34" height="34" viewBox="0 0 34 34"><defs><style>.a{fill:#1e255c;fill-rule:evenodd;}</style></defs><path class="a" d="M17,0A17,17,0,1,0,34,17,17,17,0,0,0,17,0Zm0,2.04A14.96,14.96,0,1,0,31.96,17,14.96,14.96,0,0,0,17,2.04Zm7.447,21.427c.013-.069.022-.14.033-.21V10.743c-.01-.069-.019-.137-.032-.206A1.649,1.649,0,0,0,23.085,9.2c-.028,0-.056-.01-.084-.015H11c-.072.014-.145.024-.217.041a1.66,1.66,0,0,0-1.248,1.418c0,.029-.01.058-.015.088V23.274c.014.079.025.16.042.239A1.647,1.647,0,0,0,10.919,24.8c.032,0,.064.01.1.016h11.97c.078-.014.156-.025.233-.043A1.658,1.658,0,0,0,24.447,23.467Zm-13.308-.959a.62.62,0,0,0,.594.619H22.265a.619.619,0,0,0,.6-.621q0-3.468,0-6.935v-.048H21.432a5.1,5.1,0,0,1,.185,2.057,4.928,4.928,0,0,1-.645,1.949,4.756,4.756,0,0,1-1.363,1.5,4.48,4.48,0,0,1-4.877.22,4.654,4.654,0,0,1-1.807-1.9,5.053,5.053,0,0,1-.362-3.82H11.138v.042Q11.138,19.035,11.139,22.507Zm5.792-2.34a3.174,3.174,0,1,0-2.962-3.216A3.1,3.1,0,0,0,16.93,20.168Zm5.93-7.6q0-.741,0-1.481a.618.618,0,0,0-.606-.636H20.841a.62.62,0,0,0-.607.637c0,.489,0,.979,0,1.469a.741.741,0,0,0,.036.218.6.6,0,0,0,.593.422h.682c.246,0,.493,0,.739,0A.615.615,0,0,0,22.86,12.567Zm0,0"/></svg>