<svg xmlns="http://www.w3.org/2000/svg" width="34" height="34" viewBox="0 0 34 34"><defs><style>.a{fill:#1e255c;fill-rule:evenodd;}</style></defs><path class="a" d="M17,34A17,17,0,1,0,0,17,17,17,0,0,0,17,34Zm0-2.04A14.96,14.96,0,1,0,2.04,17,14.96,14.96,0,0,0,17,31.96ZM9.52,13.68v9.887h3.2V13.68Zm1.812-4.84a1.71,1.71,0,1,0-.042,3.417h.02a1.711,1.711,0,1,0,.021-3.417Zm9.46,4.84a3.168,3.168,0,0,0-2.887,1.633v-1.4H14.7c.042.928,0,9.887,0,9.887h3.2V18.278a2.3,2.3,0,0,1,.105-.8,1.758,1.758,0,0,1,1.643-1.2c1.159,0,1.623.907,1.623,2.235V23.8h3.2V18.131C24.48,15.094,22.9,13.68,20.792,13.68Zm0,0"/></svg>