<svg xmlns="http://www.w3.org/2000/svg" width="34" height="34" viewBox="0 0 34 34"><defs><style>.a{fill:#1e255c;fill-rule:evenodd;}</style></defs><path class="a" d="M17,0A17,17,0,1,0,34,17,17,17,0,0,0,17,0Zm0,2.04A14.96,14.96,0,1,0,31.96,17,14.96,14.96,0,0,0,17,2.04ZM10.54,14.5c0,1.747.624,3.3,1.963,3.88a.328.328,0,0,0,.48-.254c.044-.178.149-.628.2-.815a.512.512,0,0,0-.138-.566,3.038,3.038,0,0,1-.633-1.992,4.678,4.678,0,0,1,4.72-4.864,3.686,3.686,0,0,1,3.989,3.892c0,2.928-1.223,5.4-3.039,5.4a1.548,1.548,0,0,1-1.513-1.956,22.865,22.865,0,0,0,.846-3.6c0-.831-.421-1.525-1.293-1.525-1.025,0-1.849,1.123-1.849,2.629a4.1,4.1,0,0,0,.306,1.607l-1.233,5.534a12.065,12.065,0,0,0-.029,3.859.126.126,0,0,0,.228.058,11.014,11.014,0,0,0,1.731-3.323c.117-.452.674-2.791.674-2.791a2.709,2.709,0,0,0,2.342,1.266c3.082,0,5.172-2.976,5.172-6.96A5.879,5.879,0,0,0,17.391,8.16,6.506,6.506,0,0,0,10.54,14.5Zm0,0"/></svg>