<svg xmlns="http://www.w3.org/2000/svg" width="34" height="34" viewBox="0 0 34 34"><defs><style>.a{fill:#1e255c;fill-rule:evenodd;}</style></defs><path class="a" d="M17,34A17,17,0,1,0,0,17,17,17,0,0,0,17,34Zm0-2.04A14.96,14.96,0,1,0,2.04,17,14.96,14.96,0,0,0,17,31.96Zm-.216-17.983.032.559-.54-.068a8.651,8.651,0,0,1-5.145-2.646l-.713-.741-.184.547A3.4,3.4,0,0,0,10.9,15c.432.479.335.547-.411.262-.259-.091-.486-.16-.508-.125a4.235,4.235,0,0,0,.389,1.528,3.561,3.561,0,0,0,1.481,1.46l.53.262-.627.011c-.605,0-.627.011-.562.251a3.324,3.324,0,0,0,2.021,1.87l.67.239-.584.365a5.889,5.889,0,0,1-2.9.844,3.07,3.07,0,0,0-.886.091,8.072,8.072,0,0,0,2.086,1,8.784,8.784,0,0,0,7.091-.844A9.813,9.813,0,0,0,22.3,17.8a12.215,12.215,0,0,0,.735-3.421c0-.525.032-.593.638-1.22a7.353,7.353,0,0,0,.757-.878c.108-.217.1-.217-.454-.023-.919.342-1.049.3-.595-.217a3.346,3.346,0,0,0,.735-1.22c0-.034-.162.023-.346.125a5.878,5.878,0,0,1-.951.388l-.584.194-.53-.376a4.335,4.335,0,0,0-.919-.5,3.539,3.539,0,0,0-1.892.046,3.268,3.268,0,0,0-2.108,3.285Zm0,0"/></svg>