<svg xmlns="http://www.w3.org/2000/svg" width="48.661" height="34.758" viewBox="0 0 48.661 34.758"><defs><style>.a{fill:#ccccf3;}</style></defs><g transform="translate(48.661 34.758) rotate(-180)"><path class="a" d="M47.185,19.9H13.818l8.029-8.029a3.3,3.3,0,0,0,1.008-2.4A3.516,3.516,0,0,0,19.379,6a3.278,3.278,0,0,0-2.4,1.008L3.15,20.838A3.332,3.332,0,0,0,2,23.379a3.151,3.151,0,0,0,1.123,2.515L16.981,39.75a3.278,3.278,0,0,0,2.4,1.008,3.515,3.515,0,0,0,3.476-3.476,3.3,3.3,0,0,0-1.008-2.4l-8.029-8.029H47.185a3.476,3.476,0,0,0,0-6.952Z" transform="translate(-2 -6)"/></g></svg>