<svg xmlns="http://www.w3.org/2000/svg" width="21.933" height="19.668" viewBox="0 0 21.933 19.668"><path d="M6.782,18.1H21.908a.756.756,0,0,0,.73-.556l2.269-8.319a.756.756,0,0,0-.73-.957H6.687L6.4,6.624A.756.756,0,0,0,5.647,6H3.756a.756.756,0,1,0,0,1.513H5.016l1.618,9.076a2.648,2.648,0,0,0,.147,5.294h.635a2.647,2.647,0,1,0,4.78,0h3.918a2.647,2.647,0,1,0,4.78,0h2.148a.756.756,0,0,0,0-1.513H6.782a1.134,1.134,0,1,1,0-2.269Zm16.4-8.319-1.857,6.807H8.169L6.955,9.781ZM10.941,23.017a1.134,1.134,0,1,1-1.134-1.134A1.134,1.134,0,0,1,10.941,23.017Zm8.7,0A1.134,1.134,0,1,1,18.5,21.882,1.134,1.134,0,0,1,19.639,23.017Z" transform="translate(-3 -6)"/></svg>