<svg xmlns="http://www.w3.org/2000/svg" width="31.068" height="27.859" viewBox="0 0 31.068 27.859"><defs><style>.a{fill:#231f20;}</style></defs><path class="a" d="M8.356,23.141H29.782a1.071,1.071,0,0,0,1.034-.787L34.03,10.569A1.071,1.071,0,0,0,33,9.214H8.223l-.4-2.33A1.071,1.071,0,0,0,6.75,6H4.071a1.071,1.071,0,0,0,0,2.143H5.855L8.148,21a3.751,3.751,0,1,0,.209,7.5h.9a3.75,3.75,0,1,0,6.771,0h5.549a3.75,3.75,0,1,0,6.771,0h3.042a1.071,1.071,0,0,0,0-2.143H8.356a1.607,1.607,0,0,1,0-3.214ZM31.593,11.356,28.963,21H10.322L8.6,11.356ZM14.249,30.1A1.607,1.607,0,1,1,12.642,28.5,1.607,1.607,0,0,1,14.249,30.1Zm12.32,0A1.607,1.607,0,1,1,24.962,28.5,1.607,1.607,0,0,1,26.568,30.1Z" transform="translate(-3 -6)"/></svg>