<svg xmlns="http://www.w3.org/2000/svg" viewBox="0 0 466 466.2"><defs><style>.a{fill:#bbe4e4;}.b{fill:none;stroke:#fff;stroke-miterlimit:10;stroke-width:30px;}</style></defs><title>check-success-icon</title><path class="a" d="M466,233v-.7c0-1.6,0-3.2-.1-4.7,0-.9-.1-1.8-.1-2.8s-.1-1.8-.1-2.7c-.1-1.1-.1-2.2-.2-3.3,0-.7-.1-1.4-.1-2.1l-.3-3.6c0-.5-.1-1.1-.1-1.6-.1-1.3-.3-2.6-.4-4,0-.3-.1-.7-.1-1C451.3,90.3,352.7,0,233,0S14.7,90.3,1.5,206.6c0,.3-.1.7-.1,1-.1,1.3-.3,2.6-.4,4a8.6,8.6,0,0,0-.1,1.6l-.3,3.6c0,.7-.1,1.4-.1,2.1-.1,1.1-.1,2.2-.2,3.3,0,.9-.1,1.8-.1,2.7s-.1,1.8-.1,2.8c0,1.6-.1,3.2-.1,4.7V234c0,1.6,0,3.2.1,4.7,0,.9.1,1.8.1,2.8s.1,1.8.1,2.7c.1,1.1.1,2.2.2,3.3,0,.7.1,1.4.1,2.1l.3,3.6c0,.5.1,1.1.1,1.6.1,1.3.3,2.6.4,4,0,.3.1.7.1,1C14.7,375.9,113.3,466.2,233,466.2s218.3-90.3,231.5-206.5c0-.3.1-.7.1-1,.1-1.3.3-2.6.4-4a8.6,8.6,0,0,0,.1-1.6l.3-3.6c0-.7.1-1.4.1-2.1.1-1.1.1-2.2.2-3.3,0-.9.1-1.8.1-2.7s.1-1.8.1-2.8c0-1.6.1-3.2.1-4.7V233Z"/><line class="b" x1="190.6" y1="321.3" x2="346.7" y2="165.3"/><line class="b" x1="210.8" y1="322.3" x2="131.7" y2="243.2"/></svg>