<svg xmlns="http://www.w3.org/2000/svg" width="23.038" height="25.941" viewBox="0 0 23.038 25.941"><defs><style>.a{fill:#f1d23d;stroke:#edd410;}</style></defs><g transform="translate(0.5 0.5)"><path class="a" d="M109.478,84.756a14.093,14.093,0,0,0-3.646-4.519,7.918,7.918,0,1,0-11.626,0,14.092,14.092,0,0,0-3.646,4.52A14.518,14.518,0,0,0,89,91.413a.528.528,0,1,0,1.056,0,13.109,13.109,0,0,1,4.923-10.447,7.926,7.926,0,0,0,10.079,0,13.108,13.108,0,0,1,4.924,10.447.528.528,0,1,0,1.056,0A14.516,14.516,0,0,0,109.478,84.756ZM93.157,74.887a6.862,6.862,0,1,1,6.862,6.832A6.855,6.855,0,0,1,93.157,74.887Z" transform="translate(-89 -67)"/></g></svg>