<svg xmlns="http://www.w3.org/2000/svg" viewBox="0 0 200.61 43.54"><defs><style>.a{isolation:isolate;}.b{fill:#f5d152;}</style></defs><title>logo-desctop-1</title><g class="a"><g class="a"><path d="M17.55,35.66A3.35,3.35,0,0,0,16.4,33a11.73,11.73,0,0,0-4-1.88A23.06,23.06,0,0,1,4.84,27.6a6.65,6.65,0,0,1-2.56-5.52,6.94,6.94,0,0,1,2.89-5.75,11.67,11.67,0,0,1,7.37-2.23,11.6,11.6,0,0,1,7.65,2.4A7.49,7.49,0,0,1,23,22.79l0,.11H17.39a4.16,4.16,0,0,0-1.3-3.29,5.3,5.3,0,0,0-3.63-1.15,4.79,4.79,0,0,0-3.28,1A3.33,3.33,0,0,0,8,22.1a2.87,2.87,0,0,0,1.26,2.39,16.56,16.56,0,0,0,4.34,2A18.61,18.61,0,0,1,20.81,30a7.14,7.14,0,0,1,2.48,5.67,6.81,6.81,0,0,1-2.87,5.79,12.44,12.44,0,0,1-7.59,2.13,13.58,13.58,0,0,1-7.93-2.3,7.59,7.59,0,0,1-3.21-6.86l0-.12H7.29A4.53,4.53,0,0,0,8.78,38a6.36,6.36,0,0,0,4.05,1.19,5.56,5.56,0,0,0,3.51-1A3.11,3.11,0,0,0,17.55,35.66Z" transform="translate(-1.69)"/><path d="M32.4,21.86l.24,2.81A7.24,7.24,0,0,1,35.2,22.3a7.47,7.47,0,0,1,3.57-.83,6.53,6.53,0,0,1,3.5.9,5.65,5.65,0,0,1,2.2,2.73A7.44,7.44,0,0,1,47,22.43a7,7,0,0,1,3.7-1,6.05,6.05,0,0,1,5,2.23q1.82,2.24,1.82,6.81V43.12H51.76V30.49A5.93,5.93,0,0,0,51,26.93a2.77,2.77,0,0,0-2.33-1,4,4,0,0,0-2.12.54A4,4,0,0,0,45.1,28a6.13,6.13,0,0,0,0,.64c0,.18,0,.36,0,.54v14H39.42V30.49A6,6,0,0,0,38.63,27a2.76,2.76,0,0,0-2.35-1,4.51,4.51,0,0,0-2,.44,3.94,3.94,0,0,0-1.44,1.25v15.5H27.08V21.86Z" transform="translate(-1.69)"/><path d="M74.44,43.12a11.47,11.47,0,0,1-.54-1.53,11.21,11.21,0,0,1-.33-1.65,7.92,7.92,0,0,1-2.34,2.58,5.86,5.86,0,0,1-3.45,1,7.2,7.2,0,0,1-5.15-1.72,6.15,6.15,0,0,1-1.81-4.69,5.59,5.59,0,0,1,2.41-4.84q2.4-1.72,7-1.72h3.22V28.88a3.3,3.3,0,0,0-.8-2.38,3.19,3.19,0,0,0-2.4-.85,3.11,3.11,0,0,0-2.15.68,2.38,2.38,0,0,0-.76,1.86H61.84l0-.12a5.41,5.41,0,0,1,2.35-4.65,10.22,10.22,0,0,1,6.49-2,9.51,9.51,0,0,1,6.2,1.92,6.73,6.73,0,0,1,2.37,5.53V37.7a16.65,16.65,0,0,0,.23,2.81,13.7,13.7,0,0,0,.72,2.61Zm-5.25-3.83a4.92,4.92,0,0,0,2.67-.74,4,4,0,0,0,1.61-1.73v-3H70.25a3.82,3.82,0,0,0-2.76.9,3,3,0,0,0-.93,2.22,2.22,2.22,0,0,0,.69,1.72A2.77,2.77,0,0,0,69.19,39.29Z" transform="translate(-1.69)"/><path d="M94.7,26.79l-2.1-.05a3.78,3.78,0,0,0-2.11.53,3.36,3.36,0,0,0-1.26,1.49V43.12H83.52V21.86h5.32L89.1,25A6.61,6.61,0,0,1,91,22.4a4.35,4.35,0,0,1,2.74-.93,4,4,0,0,1,.8.07c.24,0,.49.1.74.16Z" transform="translate(-1.69)"/><path d="M104.9,16.65v5.21h3.59v4H104.9V36.72a2.48,2.48,0,0,0,.52,1.77,1.82,1.82,0,0,0,1.36.53,5.94,5.94,0,0,0,.79-.05,6.12,6.12,0,0,0,.77-.17l.47,4.15a13.07,13.07,0,0,1-1.68.44,9.93,9.93,0,0,1-1.78.15,6.15,6.15,0,0,1-4.57-1.63q-1.61-1.63-1.6-5.17V25.89H96.07v-4h3.11V16.65Z" transform="translate(-1.69)"/><path d="M118.2,38.72H131v4.4H112.46V14.51h5.74Z" transform="translate(-1.69)"/><path d="M140.43,16.77h-5.74v-4.3h5.74Zm0,26.35h-5.74V21.86h5.74Z" transform="translate(-1.69)"/><path d="M146.64,43.12V25.89h-3.17v-4h3.17V19.5A7.17,7.17,0,0,1,148.7,14a8.14,8.14,0,0,1,5.8-1.93,10.82,10.82,0,0,1,1.48.1c.5.08,1.06.18,1.66.31l-.49,4.26-.92-.13a7.62,7.62,0,0,0-1-.06,2.75,2.75,0,0,0-2.11.76,3.1,3.1,0,0,0-.72,2.2v2.36h4.09v4h-4.09V43.12Z" transform="translate(-1.69)"/><path d="M167.92,43.54a9.59,9.59,0,0,1-7.43-2.92,10.71,10.71,0,0,1-2.67-7.52v-.78a11.62,11.62,0,0,1,2.59-7.82,8.83,8.83,0,0,1,7.13-3,8.26,8.26,0,0,1,6.58,2.62,10.42,10.42,0,0,1,2.29,7.07v3H163.73l-.06.12A5.74,5.74,0,0,0,165,37.78a4.46,4.46,0,0,0,3.53,1.36,11.88,11.88,0,0,0,3.27-.4,13.34,13.34,0,0,0,2.78-1.2l1.55,3.54a10.64,10.64,0,0,1-3.46,1.75A15.36,15.36,0,0,1,167.92,43.54Zm-.38-17.65a3.19,3.19,0,0,0-2.66,1.19,6,6,0,0,0-1.13,3.15l0,.1h7V29.9A5,5,0,0,0,170,27,2.85,2.85,0,0,0,167.54,25.89Z" transform="translate(-1.69)"/></g></g><path class="b" d="M201.34,30h-.1a1.67,1.67,0,0,1-1.8,0,1.55,1.55,0,0,1-.8-1.5,24.1,24.1,0,0,0,0-3.8,22.46,22.46,0,0,0-3.5-10.8,21.65,21.65,0,0,0-10.4-8.7,24.14,24.14,0,0,0-9.3-1.8,1.59,1.59,0,0,1-1.2-.4,1.65,1.65,0,0,1-.1-2.2l.1-.1c.1-.1.3-.2.4-.4a2,2,0,0,1,1.3-.3,26.7,26.7,0,0,1,8.9,1.5A25.4,25.4,0,0,1,194,7c.3.2.5.5.8.7.4.4.8.9,1.2,1.3l.3.3a23.35,23.35,0,0,1,3.2,4.9,27.28,27.28,0,0,1,2.7,13.8,2.41,2.41,0,0,1-.5,1.6Z" transform="translate(-1.69)"/><path class="b" d="M189.54,14.21a19.83,19.83,0,0,1,4.8,15,2,2,0,0,1-1.2,1.6,1.69,1.69,0,0,1-1.9-.4,2,2,0,0,1-.4-1.3,16.76,16.76,0,0,0-.6-6.3,16.35,16.35,0,0,0-4.8-7.7,16.83,16.83,0,0,0-11.5-4.2,1.52,1.52,0,0,1-1.6-1.7,1.86,1.86,0,0,1,1.9-1.7,20,20,0,0,1,12.3,4A12.06,12.06,0,0,1,189.54,14.21Z" transform="translate(-1.69)"/><path class="b" d="M171.74,15.41a1.65,1.65,0,0,1,1.3-.5,13.54,13.54,0,0,1,13.7,13.38v1.52a1.94,1.94,0,0,1-1.8,1.8,1.53,1.53,0,0,1-1.62-1.45,1.4,1.4,0,0,1,0-.35,10.62,10.62,0,0,0-2.1-7.4,10.48,10.48,0,0,0-8.5-4.1,1.54,1.54,0,0,1-1.5-.9,1.5,1.5,0,0,1,.2-1.7l.1-.1Z" transform="translate(-1.69)"/></svg>