<svg xmlns="http://www.w3.org/2000/svg" viewBox="0 0 64.76 23.11"><defs><style>.a{isolation:isolate;}.b{fill:#f5d152;}</style></defs><title>logo-mobile.svg_1</title><g class="a"><g class="a"><path d="M10.46,18.41a2,2,0,0,0-.68-1.58A7,7,0,0,0,7.37,15.7a13.69,13.69,0,0,1-4.48-2.09,4,4,0,0,1-1.53-3.3A4.12,4.12,0,0,1,3.08,6.89a7,7,0,0,1,4.4-1.33A6.88,6.88,0,0,1,12,7a4.47,4.47,0,0,1,1.67,3.75l0,.07H10.37a2.51,2.51,0,0,0-.77-2,3.21,3.21,0,0,0-2.17-.68,2.86,2.86,0,0,0-2,.61,2,2,0,0,0-.69,1.56,1.7,1.7,0,0,0,.75,1.42,10.21,10.21,0,0,0,2.59,1.18A11,11,0,0,1,12.41,15a4.27,4.27,0,0,1,1.48,3.38,4.08,4.08,0,0,1-1.71,3.46,7.46,7.46,0,0,1-4.53,1.26,8.14,8.14,0,0,1-4.73-1.37A4.53,4.53,0,0,1,1,17.65l0-.07H4.35a2.67,2.67,0,0,0,.89,2.23,3.78,3.78,0,0,0,2.41.71A3.29,3.29,0,0,0,9.74,20,1.88,1.88,0,0,0,10.46,18.41Z" transform="translate(-1.01)"/><path d="M19.83,20.24h7.64v2.63H16.41V5.8h3.42Z" transform="translate(-1.01)"/><path d="M33.08,7.15H29.66V4.58h3.42Zm0,15.72H29.66V10.19h3.42Z" transform="translate(-1.01)"/><path d="M36.79,22.87V12.59H34.9v-2.4h1.89V8.78A4.3,4.3,0,0,1,38,5.49a4.84,4.84,0,0,1,3.45-1.15,6.77,6.77,0,0,1,.89.06l1,.18-.3,2.55L42.51,7a5.59,5.59,0,0,0-.62,0,1.64,1.64,0,0,0-1.26.46,1.86,1.86,0,0,0-.42,1.31v1.41h2.43v2.4H40.21V22.87Z" transform="translate(-1.01)"/><path d="M49.48,23.11a5.7,5.7,0,0,1-4.43-1.74,6.34,6.34,0,0,1-1.6-4.48v-.47A6.93,6.93,0,0,1,45,11.76,5.23,5.23,0,0,1,49.25,10a4.89,4.89,0,0,1,3.92,1.57,6.16,6.16,0,0,1,1.37,4.21V17.5H47l0,.07a3.35,3.35,0,0,0,.79,2.11,2.63,2.63,0,0,0,2.1.81,6.83,6.83,0,0,0,1.95-.24,7.53,7.53,0,0,0,1.66-.71l.93,2.11a6.45,6.45,0,0,1-2.07,1A9.13,9.13,0,0,1,49.48,23.11Zm-.23-10.52a1.87,1.87,0,0,0-1.58.71A3.49,3.49,0,0,0,47,15.18l0,.06h4.17V15a2.91,2.91,0,0,0-.46-1.75A1.68,1.68,0,0,0,49.25,12.59Z" transform="translate(-1.01)"/></g></g><path class="b" d="M65.31,14.08h0a.76.76,0,0,1-.84,0,.72.72,0,0,1-.37-.7,13.22,13.22,0,0,0,0-1.78,10.53,10.53,0,0,0-1.64-5.07,10.12,10.12,0,0,0-4.87-4.08,11.2,11.2,0,0,0-4.35-.85.78.78,0,0,1-.57-.18.79.79,0,0,1,0-1l0,0a.85.85,0,0,0,.19-.19A1,1,0,0,1,53.42,0a12.85,12.85,0,0,1,4.17.7,11.91,11.91,0,0,1,4.3,2.59c.14.09.24.23.38.32s.37.43.56.61l.14.14a11.23,11.23,0,0,1,1.5,2.3,12.73,12.73,0,0,1,1.26,6.48,1.07,1.07,0,0,1-.23.75Z" transform="translate(-1.01)"/><path class="b" d="M60.19,6.28a9.75,9.75,0,0,1,2.37,7.4,1,1,0,0,1-.6.79.82.82,0,0,1-.93-.2,1,1,0,0,1-.2-.64,8.15,8.15,0,0,0-.3-3.11,8.06,8.06,0,0,0-2.37-3.8,8.35,8.35,0,0,0-5.68-2.08.76.76,0,0,1-.79-.73v-.1A.91.91,0,0,1,52.63,3a9.83,9.83,0,0,1,6.07,2A6,6,0,0,1,60.19,6.28Z" transform="translate(-1.01)"/><path class="b" d="M51.4,6.87A.85.85,0,0,1,52,6.62a6.7,6.7,0,0,1,6.77,6.61V14a1,1,0,0,1-.89.89.76.76,0,0,1-.8-.72.49.49,0,0,1,0-.17,5.24,5.24,0,0,0-1-3.65,5.14,5.14,0,0,0-4.19-2,.76.76,0,0,1-.74-.44.72.72,0,0,1,.1-.84l.05,0Z" transform="translate(-1.01)"/></svg>