<svg xmlns="http://www.w3.org/2000/svg" width="65.758" height="28.861" viewBox="0 0 65.758 28.861"><defs><style>.a{font-size:24px;font-family:Roboto-Black, Roboto;font-weight:800;}.b{fill:#f5d152;}</style></defs><g transform="translate(0 0.861)"><text class="a" transform="translate(0 22)"><tspan x="0" y="0">SLife</tspan></text><g transform="translate(51.071 -0.861)"><path class="b" d="M186.438,14.077h-.047a.782.782,0,0,1-.843,0,.733.733,0,0,1-.374-.7,11.345,11.345,0,0,0,0-1.783,10.48,10.48,0,0,0-1.638-5.068,10.13,10.13,0,0,0-4.868-4.082,11.246,11.246,0,0,0-4.353-.845.745.745,0,0,1-.562-.188.782.782,0,0,1-.047-1.032l.047-.047c.047-.047.14-.094.187-.188A.973.973,0,0,1,174.549,0a12.529,12.529,0,0,1,4.166.7,11.872,11.872,0,0,1,4.306,2.581c.14.094.234.235.374.328.187.188.374.422.562.61l.14.141a10.783,10.783,0,0,1,1.5,2.3,12.763,12.763,0,0,1,1.264,6.476,1.106,1.106,0,0,1-.234.751Z" transform="translate(-172.199 0)"/><path class="b" d="M180.583,10.806a9.76,9.76,0,0,1,2.369,7.4.98.98,0,0,1-.592.79.829.829,0,0,1-.938-.2.992.992,0,0,1-.2-.642,8.153,8.153,0,0,0-.3-3.109,8.046,8.046,0,0,0-2.369-3.8,8.3,8.3,0,0,0-5.675-2.073.763.763,0,0,1-.79-.839.919.919,0,0,1,.938-.839,9.831,9.831,0,0,1,6.07,1.974A5.894,5.894,0,0,1,180.583,10.806Z" transform="translate(-171.466 -4.532)"/><path class="b" d="M171.158,15.147a.817.817,0,0,1,.642-.247,6.682,6.682,0,0,1,6.761,6.711v.642a.954.954,0,0,1-.888.888.758.758,0,0,1-.79-.888,5.239,5.239,0,0,0-1.036-3.652,5.169,5.169,0,0,0-4.194-2.023.765.765,0,0,1-.74-.444.747.747,0,0,1,.1-.839l.049-.049Z" transform="translate(-170.826 -8.28)"/></g></g></svg>