<svg xmlns="http://www.w3.org/2000/svg" width="202.292" height="53.114" viewBox="0 0 202.292 53.114"><defs><style>.a{font-size:40.245px;font-family:Roboto-Black, Roboto;font-weight:800;}.b{fill:#f5d152;}</style></defs><text class="a" transform="translate(0 43.114)"><tspan x="0" y="0">SmartLife</tspan></text><g transform="translate(0.236 0)"><path class="b" d="M201.1,30H201a1.674,1.674,0,0,1-1.8,0,1.562,1.562,0,0,1-.8-1.5,24.1,24.1,0,0,0,0-3.8,22.3,22.3,0,0,0-3.5-10.8,21.63,21.63,0,0,0-10.4-8.7,24.08,24.08,0,0,0-9.3-1.8A1.594,1.594,0,0,1,174,3a1.664,1.664,0,0,1-.1-2.2l.1-.1c.1-.1.3-.2.4-.4a2.082,2.082,0,0,1,1.3-.3,26.829,26.829,0,0,1,8.9,1.5A25.377,25.377,0,0,1,193.8,7c.3.2.5.5.8.7.4.4.8.9,1.2,1.3l.3.3a22.974,22.974,0,0,1,3.2,4.9A27.14,27.14,0,0,1,202,28a2.353,2.353,0,0,1-.5,1.6Z"/><path class="b" d="M189.3,14.2a19.778,19.778,0,0,1,4.8,15,1.987,1.987,0,0,1-1.2,1.6,1.679,1.679,0,0,1-1.9-.4,2.01,2.01,0,0,1-.4-1.3,16.523,16.523,0,0,0-.6-6.3,16.3,16.3,0,0,0-4.8-7.7,16.816,16.816,0,0,0-11.5-4.2,1.546,1.546,0,0,1-1.6-1.7A1.863,1.863,0,0,1,174,7.5a19.922,19.922,0,0,1,12.3,4A11.941,11.941,0,0,1,189.3,14.2Z"/><path class="b" d="M171.5,15.4a1.656,1.656,0,0,1,1.3-.5,13.541,13.541,0,0,1,13.7,13.6v1.3a1.933,1.933,0,0,1-1.8,1.8,1.536,1.536,0,0,1-1.6-1.8,10.615,10.615,0,0,0-2.1-7.4,10.476,10.476,0,0,0-8.5-4.1,1.551,1.551,0,0,1-1.5-.9,1.514,1.514,0,0,1,.2-1.7l.1-.1Z"/></g></svg>