<svg xmlns="http://www.w3.org/2000/svg" viewBox="0 0 85.25 91.58"><defs><style>.a{fill:none;stroke:#bfe4e6;stroke-linecap:round;stroke-linejoin:round;stroke-width:2.5px;}</style></defs><title>package-icon_1</title><path class="a" d="M46.31,2.11l33.1,16.56A8.26,8.26,0,0,1,84,26.07V65.5a8.28,8.28,0,0,1-4.59,7.41L46.31,89.46a8.26,8.26,0,0,1-7.41,0L5.8,72.91a8.28,8.28,0,0,1-4.55-7.45V26.07a8.26,8.26,0,0,1,4.59-7.4L38.94,2.11a8.3,8.3,0,0,1,7.37,0Z"/><path class="a" d="M2.57,21.6l40.06,20,40.05-20"/><line class="a" x1="42.63" y1="90.29" x2="42.63" y2="41.63"/><line class="a" x1="21.94" y1="10.6" x2="63.31" y2="31.28"/></svg>