<svg xmlns="http://www.w3.org/2000/svg" width="21.089" height="21.857" viewBox="0 0 21.089 21.857"><defs><style>.a{fill:#f1d23d;stroke:#edd410;}</style></defs><g transform="translate(-22.3 1.3)"><path class="a" d="M42.364,7.233H25.355A7.313,7.313,0,0,1,32.845.19a7.544,7.544,0,0,1,6.4,3.4.538.538,0,0,0,.723.163.484.484,0,0,0,.172-.684A8.608,8.608,0,0,0,32.845-.8a8.337,8.337,0,0,0-8.539,8.033h-.981a.514.514,0,0,0-.525.5V19.56a.514.514,0,0,0,.525.5H42.364a.514.514,0,0,0,.525-.5V7.73A.511.511,0,0,0,42.364,7.233Zm-.525,11.83H23.85V8.227h17.99Z"/><path class="a" d="M208.237,274.55v2.17a.47.47,0,1,0,.94,0v-2.17a1.908,1.908,0,1,0-.94,0Zm.47-2.805a.967.967,0,1,1-.967.967A.97.97,0,0,1,208.708,271.744Z" transform="translate(-175.863 -260.007)"/></g></svg>