<svg xmlns="http://www.w3.org/2000/svg" width="51.406" height="34.343" viewBox="0 0 51.406 34.343"><defs><style>.a{fill:#f1d23d;}.b{fill:#fff;fill-rule:evenodd;}</style></defs><g transform="translate(-1.099 -22.038)"><path class="a" d="M52.5,54.724a1.657,1.657,0,0,1-1.657,1.657H2.756A1.657,1.657,0,0,1,1.1,54.724V23.695a1.657,1.657,0,0,1,1.657-1.657H50.848A1.657,1.657,0,0,1,52.5,23.695Z"/><g transform="translate(5.566 32.2)"><path class="b" d="M68.715,46.947c.423.08.847.155,1.27.239.327.065.74.074.93.3.2.242-.032.627-.076.949-.064.473-.169.941-.233,1.414-.031.225-.074.27-.3.172a5.882,5.882,0,0,0-3.108-.456,1.985,1.985,0,0,0-.981.366.747.747,0,0,0-.06,1.248,5.167,5.167,0,0,0,1.276.771,10.015,10.015,0,0,1,1.759,1,3.2,3.2,0,0,1,.625,4.638,4.97,4.97,0,0,1-2.926,1.773,8.292,8.292,0,0,1-1.23.2c-.068.007-.15-.02-.193.065h-.125a1.1,1.1,0,0,0-.562,0h-.188a.837.837,0,0,0-.5,0h-.125c-.486-.144-1-.133-1.491-.245a11.143,11.143,0,0,1-1.264-.341.235.235,0,0,1-.184-.3q.2-1.153.391-2.307c.042-.254.182-.162.313-.1a7.387,7.387,0,0,0,2.949.72A3.558,3.558,0,0,0,66.3,56.8a.967.967,0,0,0,.2-1.8,8.148,8.148,0,0,0-1.4-.758,8.4,8.4,0,0,1-1.465-.887,3.017,3.017,0,0,1-.509-4.464A4.963,4.963,0,0,1,65.8,47.253a8.361,8.361,0,0,1,1.256-.237c.076-.01.172.025.224-.069h.062a1.293,1.293,0,0,0,.624,0h.125a1.094,1.094,0,0,0,.562,0Z" transform="translate(-41.041 -46.947)"/><path class="b" d="M12.048,47.55c1.849,0,3.7-.016,5.545,0a1.308,1.308,0,0,1,1.424,1.167c.364,1.714.716,3.43,1.072,5.146a1.023,1.023,0,0,1,.007.155c-.214,0-.258-.188-.326-.33A9.349,9.349,0,0,0,18.6,51.828a10.133,10.133,0,0,0-2.514-2.2,1.651,1.651,0,0,1-.519-.476A12.907,12.907,0,0,0,12.048,47.8C12.048,47.717,12.048,47.634,12.048,47.55Z" transform="translate(-12.048 -47.3)"/><path class="b" d="M77.136,46.947a.713.713,0,0,1-.624,0Z" transform="translate(-50.212 -46.947)"/><path class="b" d="M78.911,46.947a.583.583,0,0,1-.562,0Z" transform="translate(-51.3 -46.947)"/><path class="b" d="M70.234,77.925a.58.58,0,0,1,.562,0Z" transform="translate(-46.495 -65.244)"/><path class="b" d="M68.549,77.928a.481.481,0,0,1,.5,0Z" transform="translate(-45.498 -65.247)"/><path class="b" d="M20.666,49.142a9.963,9.963,0,0,1,4.422,4.647c.034.075.073.147.11.22.133.586.265,1.173.4,1.782a.7.7,0,0,0,.168-.327q1.5-3.833,3-7.669a.347.347,0,0,1,.382-.27q1.483.017,2.966,0c.235,0,.286.044.187.273q-2.527,5.857-5.04,11.721a.327.327,0,0,1-.352.23c-1.01-.007-2.019-.009-3.028,0-.21,0-.287-.085-.339-.272Q22.108,54.31,20.666,49.142Z" transform="translate(-17.15 -47.288)"/><path class="b" d="M49.384,59.769c-.458,0-.917-.01-1.374,0-.236.008-.313-.055-.269-.3.36-2.069.709-4.14,1.062-6.211.306-1.794.62-3.587.915-5.382.044-.266.126-.365.409-.358.895.019,1.79.013,2.685,0,.228,0,.308.04.264.3q-1,5.812-1.98,11.627c-.042.252-.134.348-.4.332C50.259,59.751,49.821,59.769,49.384,59.769Z" transform="translate(-33.172 -47.285)"/><g transform="translate(29.203 0.121)"><path class="b" d="M95.424,57.863c-.566-2.559-1.137-5.117-1.7-7.678-.18-.823-.359-1.647-.552-2.467-.1-.427-.166-.471-.594-.471-.78,0-1.561.011-2.341,0a1.743,1.743,0,0,0-1.773,1.121c-.556,1.278-1.128,2.549-1.688,3.825-.756,1.724-1.522,3.443-2.279,5.167-.281.638-.592,1.263-.829,1.918-.111.306-.013.433.309.434.989,0,1.977,0,2.966,0a.431.431,0,0,0,.451-.3c.161-.373.3-.753.436-1.136a.514.514,0,0,1,.555-.392c1.072.007,2.144,0,3.215,0,.377,0,.44.06.522.435.078.356.155.712.241,1.065a.363.363,0,0,0,.412.324c.853-.01,1.707,0,2.56,0,.115,0,.231.011.315-.094v-.125C95.553,58.952,95.543,58.4,95.424,57.863Zm-4.1-2.6q-1.108-.018-2.214,0c-.235,0-.255-.069-.177-.266.383-.965.757-1.934,1.133-2.9.163-.422.324-.845.485-1.267l.085.013q.349,1.6.7,3.192c.069.315.122.633.207.943C91.608,55.189,91.567,55.262,91.328,55.258Z" transform="translate(-83.629 -47.244)"/></g></g></g></svg>